<svg width="72" height="72" viewBox="0 0 72 72" fill="none" xmlns="http://www.w3.org/2000/svg">
<path fill-rule="evenodd" clip-rule="evenodd" d="M13.5 54H34.5H36H55.5C64.6127 54 72 46.6127 72 37.5C72 28.3873 64.6127 21 55.5 21C55.1382 21 54.7791 21.0116 54.4231 21.0346C50.6566 13.879 43.1481 9 34.5 9C23.6003 9 14.5107 16.7504 12.4418 27.0409C5.48057 27.5806 0 33.4003 0 40.5C0 47.9558 6.04416 54 13.5 54Z" fill="#E7F1FF"/>
<path fill-rule="evenodd" clip-rule="evenodd" d="M13.5 54H34.5H36H55.5C64.6127 54 72 46.6127 72 37.5C72 28.3873 64.6127 21 55.5 21C55.1382 21 54.7791 21.0116 54.4231 21.0346C50.6566 13.879 43.1481 9 34.5 9C23.6003 9 14.5107 16.7504 12.4418 27.0409C5.48057 27.5806 0 33.4003 0 40.5C0 47.9558 6.04416 54 13.5 54Z" fill="url(#paint0_linear_537_36556)"/>
<path fill-rule="evenodd" clip-rule="evenodd" d="M13.5 54H34.5H36H55.5C64.6127 54 72 46.6127 72 37.5C72 28.3873 64.6127 21 55.5 21C55.1382 21 54.7791 21.0116 54.4231 21.0346C50.6566 13.879 43.1481 9 34.5 9C23.6003 9 14.5107 16.7504 12.4418 27.0409C5.48057 27.5806 0 33.4003 0 40.5C0 47.9558 6.04416 54 13.5 54Z" fill="url(#paint1_linear_537_36556)"/>
<path d="M0 40.5C0 33.0442 6.04416 27 13.5 27H18C27.9411 27 36 35.0589 36 45V54H13.5C6.04416 54 0 47.9558 0 40.5Z" fill="url(#paint2_radial_537_36556)"/>
<path d="M12 31.5C12 19.0736 22.0736 9 34.5 9C46.9264 9 57 19.0736 57 31.5C57 43.9264 46.9264 54 34.5 54C22.0736 54 12 43.9264 12 31.5Z" fill="url(#paint3_radial_537_36556)"/>
<circle cx="55.5" cy="37.5" r="16.5" fill="url(#paint4_radial_537_36556)"/>
<path fill-rule="evenodd" clip-rule="evenodd" d="M45 61.5002V41.1006C45 39.2254 47.2709 38.2904 48.5912 39.6219L62.8413 53.9931C64.7903 55.8994 66 58.5585 66 61.5002C66 67.2992 61.299 72.0002 55.5 72.0002C49.701 72.0002 45 67.2992 45 61.5002Z" fill="#C4C4C4"/>
<path fill-rule="evenodd" clip-rule="evenodd" d="M45 61.5002V41.1006C45 39.2254 47.2709 38.2904 48.5912 39.6219L62.8413 53.9931C64.7903 55.8994 66 58.5585 66 61.5002C66 67.2992 61.299 72.0002 55.5 72.0002C49.701 72.0002 45 67.2992 45 61.5002Z" fill="url(#paint5_linear_537_36556)"/>
<path fill-rule="evenodd" clip-rule="evenodd" d="M18 59.4411V43.3308C18 41.4556 20.2709 40.5206 21.5912 41.8522L32.5983 52.9529C34.6711 54.6017 36 57.1458 36 60.0002C36 64.9708 31.9706 69.0002 27 69.0002C22.0294 69.0002 18 64.9708 18 60.0002C18 59.81 18.0059 59.6212 18.0175 59.4339L18 59.4411Z" fill="#C4C4C4"/>
<path fill-rule="evenodd" clip-rule="evenodd" d="M18 59.4411V43.3308C18 41.4556 20.2709 40.5206 21.5912 41.8522L32.5983 52.9529C34.6711 54.6017 36 57.1458 36 60.0002C36 64.9708 31.9706 69.0002 27 69.0002C22.0294 69.0002 18 64.9708 18 60.0002C18 59.81 18.0059 59.6212 18.0175 59.4339L18 59.4411Z" fill="url(#paint6_linear_537_36556)"/>
<defs>
<linearGradient id="paint0_linear_537_36556" x1="22.5" y1="19.5" x2="36" y2="54" gradientUnits="userSpaceOnUse">
<stop stop-color="#C6D8F5"/>
<stop offset="1" stop-color="#89AFD1" stop-opacity="0"/>
</linearGradient>
<linearGradient id="paint1_linear_537_36556" x1="32.0998" y1="55.5925" x2="31.1538" y2="9" gradientUnits="userSpaceOnUse">
<stop stop-color="#547DDA"/>
<stop offset="0.257422" stop-color="#93C2FF" stop-opacity="0"/>
</linearGradient>
<radialGradient id="paint2_radial_537_36556" cx="0" cy="0" r="1" gradientUnits="userSpaceOnUse" gradientTransform="translate(19.5 54) rotate(-127.875) scale(28.5044 32.9871)">
<stop offset="0.683784" stop-color="#8FABDD" stop-opacity="0"/>
<stop offset="1" stop-color="#5582D3"/>
</radialGradient>
<radialGradient id="paint3_radial_537_36556" cx="0" cy="0" r="1" gradientUnits="userSpaceOnUse" gradientTransform="translate(34.5 49.5) rotate(-90) scale(40.5)">
<stop offset="0.598765" stop-color="#C7DFFF" stop-opacity="0"/>
<stop offset="1" stop-color="#6B97E6"/>
</radialGradient>
<radialGradient id="paint4_radial_537_36556" cx="0" cy="0" r="1" gradientUnits="userSpaceOnUse" gradientTransform="translate(46.7 49.6) rotate(-56.3099) scale(31.7288)">
<stop offset="0.47771" stop-color="#8FABDD" stop-opacity="0"/>
<stop offset="1" stop-color="#5582D3"/>
</radialGradient>
<linearGradient id="paint5_linear_537_36556" x1="60.7509" y1="69.8232" x2="41.7826" y2="48.9185" gradientUnits="userSpaceOnUse">
<stop stop-color="#0066FF"/>
<stop offset="1" stop-color="#65ACFF"/>
</linearGradient>
<linearGradient id="paint6_linear_537_36556" x1="31.5008" y1="67.1682" x2="15.5695" y2="49.2848" gradientUnits="userSpaceOnUse">
<stop stop-color="#0066FF"/>
<stop offset="1" stop-color="#65ACFF"/>
</linearGradient>
</defs>
</svg>
