<svg width="72" height="72" viewBox="0 0 72 72" fill="none" xmlns="http://www.w3.org/2000/svg">
<path fill-rule="evenodd" clip-rule="evenodd" d="M13.5 54H34.5H36H55.5C64.6127 54 72 46.6127 72 37.5C72 28.3873 64.6127 21 55.5 21C55.1382 21 54.7791 21.0116 54.4231 21.0346C50.6566 13.879 43.1481 9 34.5 9C23.6003 9 14.5107 16.7504 12.4418 27.0409C5.48057 27.5806 0 33.4003 0 40.5C0 47.9558 6.04416 54 13.5 54Z" fill="#E7F1FF"/>
<path fill-rule="evenodd" clip-rule="evenodd" d="M13.5 54H34.5H36H55.5C64.6127 54 72 46.6127 72 37.5C72 28.3873 64.6127 21 55.5 21C55.1382 21 54.7791 21.0116 54.4231 21.0346C50.6566 13.879 43.1481 9 34.5 9C23.6003 9 14.5107 16.7504 12.4418 27.0409C5.48057 27.5806 0 33.4003 0 40.5C0 47.9558 6.04416 54 13.5 54Z" fill="url(#paint0_linear_537_34842)"/>
<path fill-rule="evenodd" clip-rule="evenodd" d="M13.5 54H34.5H36H55.5C64.6127 54 72 46.6127 72 37.5C72 28.3873 64.6127 21 55.5 21C55.1382 21 54.7791 21.0116 54.4231 21.0346C50.6566 13.879 43.1481 9 34.5 9C23.6003 9 14.5107 16.7504 12.4418 27.0409C5.48057 27.5806 0 33.4003 0 40.5C0 47.9558 6.04416 54 13.5 54Z" fill="url(#paint1_linear_537_34842)"/>
<path d="M0 40.5C0 33.0442 6.04416 27 13.5 27H18C27.9411 27 36 35.0589 36 45V54H13.5C6.04416 54 0 47.9558 0 40.5Z" fill="url(#paint2_radial_537_34842)"/>
<path d="M12 31.5C12 19.0736 22.0736 9 34.5 9C46.9264 9 57 19.0736 57 31.5C57 43.9264 46.9264 54 34.5 54C22.0736 54 12 43.9264 12 31.5Z" fill="url(#paint3_radial_537_34842)"/>
<circle cx="55.5" cy="37.5" r="16.5" fill="url(#paint4_radial_537_34842)"/>
<path fill-rule="evenodd" clip-rule="evenodd" d="M15 59.4409V43.3306C15 41.4554 17.2709 40.5204 18.5912 41.852L29.5983 52.9527C31.6711 54.6015 33 57.1456 33 60C33 64.9706 28.9706 69 24 69C19.0294 69 15 64.9706 15 60C15 59.8098 15.0059 59.621 15.0175 59.4337L15 59.4409Z" fill="#C4C4C4"/>
<path fill-rule="evenodd" clip-rule="evenodd" d="M15 59.4409V43.3306C15 41.4554 17.2709 40.5204 18.5912 41.852L29.5983 52.9527C31.6711 54.6015 33 57.1456 33 60C33 64.9706 28.9706 69 24 69C19.0294 69 15 64.9706 15 60C15 59.8098 15.0059 59.621 15.0175 59.4337L15 59.4409Z" fill="url(#paint5_linear_537_34842)"/>
<path fill-rule="evenodd" clip-rule="evenodd" d="M55.5 36C56.3284 36 57 36.6716 57 37.5V39.8787L57.4393 39.4393C58.0251 38.8536 58.9749 38.8536 59.5607 39.4393C60.1465 40.0251 60.1465 40.9749 59.5607 41.5607L57 44.1213V48.4021L60.7077 46.2615L61.6449 42.7639C61.8593 41.9637 62.6818 41.4888 63.482 41.7032C64.2822 41.9176 64.7571 42.7401 64.5426 43.5403L64.3819 44.1402L66.4417 42.951C67.1591 42.5367 68.0765 42.7826 68.4907 43.5C68.9049 44.2174 68.6591 45.1348 67.9417 45.549L65.8815 46.7385L66.482 46.8994C67.2822 47.1138 67.7571 47.9363 67.5426 48.7365C67.3282 49.5367 66.5057 50.0116 65.7055 49.7971L62.2073 48.8598L58.5 51.0002L62.2067 53.1402L65.705 52.2029C66.5052 51.9884 67.3277 52.4633 67.5421 53.2635C67.7565 54.0637 67.2816 54.8862 66.4814 55.1006L65.8809 55.2615L67.941 56.451C68.6585 56.8652 68.9043 57.7826 68.4901 58.5C68.0759 59.2174 67.1585 59.4633 66.441 59.049L64.3814 57.8599L64.5421 58.4597C64.7565 59.2599 64.2816 60.0824 63.4814 60.2968C62.6812 60.5112 61.8587 60.0363 61.6443 59.2361L60.7071 55.7386L57 53.5983V57.8787L59.5607 60.4393C60.1465 61.0251 60.1465 61.9749 59.5607 62.5607C58.9749 63.1464 58.0251 63.1464 57.4393 62.5607L57 62.1213V64.5C57 65.3284 56.3284 66 55.5 66C54.6716 66 54 65.3284 54 64.5V62.1213L53.5607 62.5607C52.9749 63.1464 52.0251 63.1464 51.4393 62.5607C50.8536 61.9749 50.8536 61.0251 51.4393 60.4393L54 57.8787V53.5983L50.293 55.7385L49.3557 59.2365C49.1413 60.0367 48.3188 60.5116 47.5186 60.2971C46.7184 60.0827 46.2435 59.2602 46.4579 58.46L46.6187 57.8598L44.559 59.049C43.8415 59.4633 42.9241 59.2174 42.5099 58.5C42.0957 57.7826 42.3415 56.8652 43.059 56.451L45.1187 55.2618L44.5186 55.101C43.7184 54.8866 43.2435 54.0641 43.4579 53.2639C43.6723 52.4637 44.4948 51.9888 45.295 52.2032L48.7929 53.1405L52.5 51.0002L48.7923 48.8595L45.2945 49.7968C44.4943 50.0112 43.6718 49.5363 43.4574 48.7361C43.243 47.9359 43.7178 47.1134 44.518 46.899L45.1181 46.7382L43.0584 45.549C42.3409 45.1348 42.0951 44.2174 42.5093 43.5C42.9235 42.7826 43.8409 42.5367 44.5584 42.951L46.6182 44.1402L46.4574 43.54C46.243 42.7398 46.7178 41.9173 47.518 41.7029C48.3182 41.4884 49.1407 41.9633 49.3551 42.7635L50.2924 46.2615L54 48.4021V44.1213L51.4393 41.5607C50.8536 40.9749 50.8536 40.0251 51.4393 39.4393C52.0251 38.8536 52.9749 38.8536 53.5607 39.4393L54 39.8787V37.5C54 36.6716 54.6716 36 55.5 36Z" fill="url(#paint6_linear_537_34842)"/>
<defs>
<linearGradient id="paint0_linear_537_34842" x1="22.5" y1="19.5" x2="36" y2="54" gradientUnits="userSpaceOnUse">
<stop stop-color="#C6D8F5"/>
<stop offset="1" stop-color="#89AFD1" stop-opacity="0"/>
</linearGradient>
<linearGradient id="paint1_linear_537_34842" x1="32.0998" y1="55.5925" x2="31.1538" y2="9" gradientUnits="userSpaceOnUse">
<stop stop-color="#547DDA"/>
<stop offset="0.257422" stop-color="#93C2FF" stop-opacity="0"/>
</linearGradient>
<radialGradient id="paint2_radial_537_34842" cx="0" cy="0" r="1" gradientUnits="userSpaceOnUse" gradientTransform="translate(19.5 54) rotate(-127.875) scale(28.5044 32.9871)">
<stop offset="0.683784" stop-color="#8FABDD" stop-opacity="0"/>
<stop offset="1" stop-color="#5582D3"/>
</radialGradient>
<radialGradient id="paint3_radial_537_34842" cx="0" cy="0" r="1" gradientUnits="userSpaceOnUse" gradientTransform="translate(34.5 49.5) rotate(-90) scale(40.5)">
<stop offset="0.598765" stop-color="#C7DFFF" stop-opacity="0"/>
<stop offset="1" stop-color="#6B97E6"/>
</radialGradient>
<radialGradient id="paint4_radial_537_34842" cx="0" cy="0" r="1" gradientUnits="userSpaceOnUse" gradientTransform="translate(46.7 49.6) rotate(-56.3099) scale(31.7288)">
<stop offset="0.47771" stop-color="#8FABDD" stop-opacity="0"/>
<stop offset="1" stop-color="#5582D3"/>
</radialGradient>
<linearGradient id="paint5_linear_537_34842" x1="28.5008" y1="67.1682" x2="12.5695" y2="49.2848" gradientUnits="userSpaceOnUse">
<stop stop-color="#0066FF"/>
<stop offset="1" stop-color="#65ACFF"/>
</linearGradient>
<linearGradient id="paint6_linear_537_34842" x1="55.5" y1="36" x2="55.5" y2="66" gradientUnits="userSpaceOnUse">
<stop stop-color="#1A70F0"/>
<stop offset="1" stop-color="#2D94DE"/>
</linearGradient>
</defs>
</svg>
